<?xml version="1.0" standalone="no"?>
<!DOCTYPE svg PUBLIC "-//W3C//DTD SVG 20010904//EN"
 "http://www.w3.org/TR/2001/REC-SVG-20010904/DTD/svg10.dtd">
<svg version="1.0" xmlns="http://www.w3.org/2000/svg"
 width="216.000000pt" height="233.000000pt" viewBox="0 0 216.000000 233.000000"
 preserveAspectRatio="xMidYMid meet">

<g transform="translate(0.000000,233.000000) scale(0.100000,-0.100000)"
fill="#000000" stroke="none">
<path d="M1281 1964 c9 -9 25 -14 35 -12 14 3 10 7 -16 16 -32 12 -34 11 -19
-4z"/>
<path d="M1237 1959 c7 -7 15 -10 18 -7 3 3 -2 9 -12 12 -14 6 -15 5 -6 -5z"/>
<path d="M1270 1936 c0 -3 9 -10 20 -16 11 -6 20 -8 20 -6 0 3 -9 10 -20 16
-11 6 -20 8 -20 6z"/>
<path d="M1335 1909 c-5 -14 -12 -18 -23 -14 -14 5 -15 4 -4 -6 9 -10 15 -10
23 -2 6 6 17 10 23 9 6 -2 8 -1 4 1 -5 3 -8 9 -8 14 0 6 5 7 12 3 7 -4 8 -3 4
4 -11 18 -24 14 -31 -9z"/>
<path d="M1250 1910 c0 -5 9 -14 20 -20 19 -10 20 -10 8 9 -13 22 -28 28 -28
11z"/>
<path d="M1275 1860 c-16 -7 -17 -9 -3 -9 9 -1 20 4 23 9 7 11 7 11 -20 0z"/>
<path d="M1146 1824 c-13 -18 -15 -29 -7 -37 7 -7 12 -5 16 9 4 10 11 27 16
37 14 26 -3 20 -25 -9z"/>
<path d="M1158 1773 c-9 -2 -19 -11 -22 -19 -4 -12 -2 -12 14 -4 15 8 40 33
28 29 -2 -1 -10 -3 -20 -6z"/>
<path d="M1208 1773 c7 -3 16 -2 19 1 4 3 -2 6 -13 5 -11 0 -14 -3 -6 -6z"/>
<path d="M1045 1750 c-3 -5 -12 -7 -20 -3 -8 3 -15 0 -15 -6 0 -6 6 -11 13
-11 17 0 56 29 40 30 -6 0 -14 -4 -18 -10z"/>
<path d="M1149 1731 c-14 -5 -15 -8 -4 -18 10 -10 15 -9 19 4 8 20 5 22 -15
14z"/>
<path d="M1101 1710 c-18 -11 0 -19 23 -10 16 5 17 8 4 12 -8 4 -21 3 -27 -2z"/>
<path d="M885 1689 c-11 -16 -1 -19 13 -3 7 8 8 14 3 14 -5 0 -13 -5 -16 -11z"/>
<path d="M967 1679 c7 -7 15 -10 18 -7 3 3 -2 9 -12 12 -14 6 -15 5 -6 -5z"/>
<path d="M900 1631 c0 -4 11 -6 25 -3 14 2 25 6 25 8 0 2 -11 4 -25 4 -14 0
-25 -4 -25 -9z"/>
<path d="M860 1626 c0 -2 7 -7 16 -10 8 -3 12 -2 9 4 -6 10 -25 14 -25 6z"/>
<path d="M895 1570 c3 -5 8 -10 11 -10 2 0 4 5 4 10 0 6 -5 10 -11 10 -5 0 -7
-4 -4 -10z"/>
<path d="M1287 1552 c-8 -17 -12 -34 -8 -39 8 -11 141 -12 141 -1 0 4 -11 15
-25 24 -14 9 -25 23 -25 30 0 8 -4 14 -10 14 -5 0 -7 -7 -4 -15 8 -20 -15 -19
-37 1 -16 14 -18 13 -32 -14z"/>
<path d="M1490 1565 c-10 -12 -8 -21 10 -50 12 -20 19 -42 16 -50 -4 -13 20
-35 38 -35 16 0 -1 67 -21 83 -24 19 -31 47 -12 47 5 0 7 5 4 10 -9 14 -21 12
-35 -5z"/>
<path d="M1580 1561 c0 -5 5 -13 10 -16 6 -3 10 -2 10 4 0 5 -4 13 -10 16 -5
3 -10 2 -10 -4z"/>
<path d="M1104 1531 c11 -11 25 -21 33 -21 7 0 13 -4 13 -10 0 -5 5 -10 10
-10 19 0 10 15 -23 35 -48 29 -54 30 -33 6z"/>
<path d="M1023 1533 c-7 -2 -13 -16 -13 -29 0 -22 -2 -23 -21 -14 -16 9 -26 8
-45 -5 -13 -8 -24 -22 -24 -31 0 -8 -7 -17 -15 -20 -16 -7 -21 -24 -6 -24 14
0 42 30 36 39 -6 11 33 46 42 37 5 -4 0 -12 -10 -17 -9 -6 -17 -16 -17 -24 0
-10 14 -13 58 -12 56 2 57 1 60 -26 2 -16 11 -31 20 -34 9 -3 32 -12 49 -21
31 -15 33 -15 46 2 11 15 20 17 43 11 16 -4 52 -9 80 -12 51 -5 52 -4 63 28
16 47 14 51 -25 43 -44 -8 -80 9 -88 42 -7 26 -20 31 -32 13 -3 -6 -1 -15 5
-19 9 -5 8 -10 -4 -20 -13 -11 -18 -10 -30 6 -8 10 -15 22 -15 27 0 4 -9 7
-21 7 -11 0 -17 -5 -14 -10 3 -6 -1 -13 -9 -16 -9 -3 -16 -13 -16 -20 0 -12
-4 -12 -20 -4 -26 14 -26 30 1 23 17 -5 20 -2 17 13 -2 12 -12 19 -25 18 -12
0 -20 3 -17 7 5 8 -26 50 -36 48 -3 0 -11 -3 -17 -6z m30 -17 c3 -8 3 -24 0
-37 -5 -17 -3 -20 7 -14 8 5 11 4 6 -3 -11 -19 -34 -2 -38 29 -3 16 -2 31 0
34 9 9 20 5 25 -9z m-33 -53 c0 -5 -12 -9 -27 -10 -19 -1 -22 1 -12 8 17 11
39 12 39 2z m337 -59 c-3 -3 -12 -4 -19 -1 -8 3 -5 6 6 6 11 1 17 -2 13 -5z"/>
<path d="M970 1521 c0 -5 7 -11 15 -15 8 -3 15 -1 15 3 0 5 -7 11 -15 15 -8 3
-15 1 -15 -3z"/>
<path d="M800 1509 c0 -5 5 -7 10 -4 6 3 10 8 10 11 0 2 -4 4 -10 4 -5 0 -10
-5 -10 -11z"/>
<path d="M803 1440 c2 -8 12 -16 23 -17 13 -2 15 -1 4 4 -8 3 -19 11 -23 17
-6 7 -7 6 -4 -4z"/>
<path d="M858 1413 c7 -3 16 -2 19 1 4 3 -2 6 -13 5 -11 0 -14 -3 -6 -6z"/>
<path d="M800 1396 c0 -9 5 -16 10 -16 6 0 10 4 10 9 0 6 -4 13 -10 16 -5 3
-10 -1 -10 -9z"/>
<path d="M739 1358 c7 -9 9 -23 5 -30 -6 -10 -4 -11 7 0 11 10 10 15 -6 30
-17 15 -18 15 -6 0z"/>
<path d="M767 1354 c6 -18 19 -18 26 -1 3 7 -3 13 -14 14 -12 1 -16 -3 -12
-13z"/>
<path d="M1525 1313 c4 -10 10 -26 12 -35 3 -10 9 -18 14 -18 5 0 9 -7 9 -16
0 -15 2 -15 22 -2 33 22 32 35 -1 41 -17 4 -32 14 -36 27 -3 11 -11 20 -17 20
-6 0 -7 -7 -3 -17z"/>
<path d="M723 1295 c1 -14 -3 -19 -15 -17 -21 3 -23 -8 -5 -32 12 -16 14 -14
30 19 10 20 13 34 8 31 -5 -4 -12 0 -15 6 -3 7 -4 4 -3 -7z"/>
<path d="M1364 1272 c7 -15 24 -56 36 -92 12 -36 31 -74 41 -86 11 -11 19 -28
19 -36 0 -14 5 -15 32 -7 18 5 37 9 41 9 20 0 -44 -88 -100 -137 -41 -36 -64
-64 -67 -84 -3 -16 -9 -43 -12 -59 -4 -22 -18 -38 -45 -56 -21 -13 -39 -30
-39 -37 0 -17 -75 -85 -106 -97 -43 -17 -38 -24 -76 110 -6 23 -6 44 1 62 12
32 2 74 -29 115 -13 19 -20 41 -18 59 3 24 -1 30 -22 33 -14 1 -28 8 -32 14
-4 8 -18 7 -46 -1 -90 -27 -143 -11 -201 62 -24 30 -31 49 -31 82 0 23 -4 45
-9 48 -5 3 -7 14 -4 24 2 10 -4 25 -14 34 -18 16 -19 16 -30 -1 -10 -15 -9
-18 5 -17 19 1 28 -35 16 -62 -3 -9 -7 -33 -7 -52 l0 -35 -4 33 c-2 18 -8 30
-12 28 -5 -3 -6 6 -3 19 2 14 8 22 13 19 5 -3 9 6 9 20 0 18 -4 24 -15 20 -8
-4 -15 -12 -15 -19 0 -8 -9 -17 -20 -20 -18 -6 -24 -17 -21 -38 1 -4 -14 -16
-31 -27 -45 -26 -59 -40 -53 -50 3 -5 -6 -17 -20 -26 -26 -17 -33 -49 -12 -57
9 -4 9 -6 -1 -6 -8 -1 -16 8 -19 19 -3 11 -10 20 -17 20 -15 0 -66 55 -66 72
0 10 -2 10 -9 -1 -6 -10 4 -28 38 -64 87 -93 124 -127 139 -127 8 0 30 -11 49
-26 24 -19 33 -33 33 -55 0 -17 12 -50 26 -75 14 -24 24 -50 21 -57 -7 -18 81
-93 138 -118 107 -47 286 -62 417 -34 145 30 267 96 374 200 125 123 203 276
211 419 l4 81 -26 -50 c-14 -27 -34 -72 -43 -100 -13 -42 -17 -46 -20 -25 -2
13 -2 55 0 92 2 36 1 66 -2 65 -3 -1 -7 3 -9 8 -12 33 -32 47 -70 49 -28 2
-41 -2 -41 -11 0 -7 5 -13 10 -13 13 0 13 -23 -1 -54 -12 -26 -116 -96 -142
-96 -9 0 -18 13 -22 33 -4 17 -13 43 -20 57 -48 98 -61 120 -72 124 -11 4 -10
0 1 -22z m-834 -322 c0 -5 -2 -10 -4 -10 -3 0 -8 5 -11 10 -3 6 -1 10 4 10 6
0 11 -4 11 -10z m-25 -20 c3 -6 -1 -7 -9 -4 -18 7 -21 14 -7 14 6 0 13 -4 16
-10z m879 -224 c-26 -31 -52 -56 -56 -56 -16 0 37 82 59 90 11 5 24 14 28 20
4 6 9 9 12 6 3 -3 -16 -30 -43 -60z"/>
<path d="M460 1035 c7 -9 15 -13 17 -11 7 7 -7 26 -19 26 -6 0 -6 -6 2 -15z"/>
<path d="M0 85 l0 -85 1080 0 1080 0 0 85 0 85 -1080 0 -1080 0 0 -85z m295
15 c-17 -7 -17 -9 -2 -9 9 -1 17 -7 17 -15 0 -18 -27 -29 -36 -14 -4 6 -3 8 4
4 6 -3 13 -2 16 3 3 5 -1 11 -9 15 -23 8 -18 26 8 25 21 0 21 -1 2 -9z m32
-27 c-3 -10 -5 -4 -5 12 0 17 2 24 5 18 2 -7 2 -21 0 -30z m112 21 c4 3 7 -3
7 -13 0 -10 -6 -18 -13 -18 -8 0 -13 11 -12 26 0 14 3 20 6 13 2 -6 8 -10 12
-8z m-185 -5 c-4 -7 -44 0 -44 7 0 2 11 3 24 2 14 -1 23 -5 20 -9z m143 -1
c-9 -6 -9 -10 3 -18 12 -8 9 -10 -12 -10 -16 0 -31 -1 -35 -2 -5 -2 -9 7 -11
19 -3 18 1 21 32 20 22 -1 31 -4 23 -9z m1323 -13 c5 3 11 1 14 -4 4 -5 -2 -8
-11 -7 -9 2 -18 8 -19 15 -1 6 0 7 3 1 2 -5 9 -8 13 -5z m240 0 c0 -8 -4 -15
-10 -15 -5 0 -7 7 -4 15 4 8 8 15 10 15 2 0 4 -7 4 -15z m17 -7 c-3 -8 -6 -5
-6 6 -1 11 2 17 5 13 3 -3 4 -12 1 -19z m47 7 c3 -8 1 -15 -4 -15 -6 0 -10 7
-10 15 0 8 2 15 4 15 2 0 6 -7 10 -15z m23 -7 c-3 -8 -6 -5 -6 6 -1 11 2 17 5
13 3 -3 4 -12 1 -19z m51 -3 c-3 -3 -9 2 -12 12 -6 14 -5 15 5 6 7 -7 10 -15
7 -18z m-2005 0 c-3 -9 -8 -14 -10 -11 -3 3 -2 9 2 15 9 16 15 13 8 -4z m31
-1 c3 -8 2 -12 -4 -9 -6 3 -10 10 -10 16 0 14 7 11 14 -7z m1566 6 c0 -5 -8
-10 -17 -10 -15 0 -16 2 -3 10 19 12 20 12 20 0z m80 0 c0 -5 -5 -10 -11 -10
-5 0 -7 5 -4 10 3 6 8 10 11 10 2 0 4 -4 4 -10z m120 6 c0 -2 -7 -6 -15 -10
-8 -3 -15 -1 -15 4 0 6 7 10 15 10 8 0 15 -2 15 -4z"/>
<path d="M350 74 c0 -8 5 -12 10 -9 6 3 10 10 10 16 0 5 -4 9 -10 9 -5 0 -10
-7 -10 -16z"/>
</g>
</svg>
